<?xml version="1.0" encoding="UTF-8" standalone="no"?>
<!-- Created with Inkscape (http://www.inkscape.org/) -->

<svg
   version="1.1"
   id="svg1821"
   width="338"
   height="161"
   viewBox="0 0 338 161"
   sodipodi:docname="starvarsSVGloggo.svg"
   inkscape:version="1.1.1 (3bf5ae0d25, 2021-09-20)"
   xmlns:inkscape="http://www.inkscape.org/namespaces/inkscape"
   xmlns:sodipodi="http://sodipodi.sourceforge.net/DTD/sodipodi-0.dtd"
   xmlns="http://www.w3.org/2000/svg"
   xmlns:svg="http://www.w3.org/2000/svg">
  <defs
     id="defs1825" />
  <sodipodi:namedview
     id="namedview1823"
     pagecolor="#ffffff"
     bordercolor="#666666"
     borderopacity="1.0"
     inkscape:pageshadow="2"
     inkscape:pageopacity="0.0"
     inkscape:pagecheckerboard="0"
     showgrid="false"
     inkscape:zoom="1.0721663"
     inkscape:cx="144.10077"
     inkscape:cy="73.216251"
     inkscape:window-width="1920"
     inkscape:window-height="991"
     inkscape:window-x="-9"
     inkscape:window-y="-9"
     inkscape:window-maximized="1"
     inkscape:current-layer="g1827" />
  <g
     inkscape:groupmode="layer"
     inkscape:label="Image"
     id="g1827">
    <path
       id="path1911"
       style="fill:#ffe81f;fill-opacity:1;stroke-width:1.05829"
       d="m 238.8828,12.875 v 34.460672 34.460672 h 13.75781 13.75781 v -9.764408 -9.764408 l 8.20177,8.133562 c 4.51098,4.473016 9.97327,8.867011 12.1373,9.764407 3.11932,1.293542 8.5467,1.630847 26.19276,1.630847 h 22.25723 V 69.625972 57.455601 h -18.34444 c -10.08907,0 -18.64324,-0.300873 -19.01001,-0.667634 -0.36674,-0.366762 1.6662,-2.762005 4.51635,-5.324538 6.06443,-5.452445 7.8702,-9.958961 7.20549,-17.974448 -0.62324,-7.515405 -4.8238,-13.596984 -11.91407,-17.248939 -5.16065,-2.658079 -5.69839,-2.709274 -32.00303,-3.034325 z m -63.40872,0.132287 -2.28195,7.672625 c -1.2552,4.219944 -5.79815,19.32551 -10.09718,33.567738 -4.29903,14.242227 -7.81732,26.267083 -7.81732,26.721903 0,0.454819 5.6578,0.826791 12.57344,0.826791 h 12.57343 l 1.20091,-4.762319 1.19885,-4.76232 h 12.01742 12.01741 l 1.3332,4.76232 1.33321,4.762319 h 12.67471 c 9.6954,0 12.56089,-0.310992 12.1869,-1.322866 -0.26891,-0.727577 -3.21053,-10.133158 -6.53785,-20.901291 -3.3273,-10.768133 -7.94258,-25.650381 -10.25428,-33.071662 l -4.20217,-13.493238 h -18.95833 z m -61.46988,0.529146 c -47.046819,0 -50.506346,0.126872 -53.972954,1.976033 -8.32499,4.440723 -11.943004,9.933959 -11.943004,18.131538 0,6.314133 2.054756,10.710824 8.412604,17.990984 L 61.122611,56.926454 33.061305,57.207563 5,57.490739 v 12.203444 12.203443 l 36.775688,-0.314181 c 36.439337,-0.312735 36.813043,-0.339782 40.754624,-2.790422 5.920509,-3.681019 9.460562,-10.419561 9.460562,-18.005452 0,-7.566865 -2.412451,-12.637848 -9.119511,-19.162961 -2.667309,-2.59495 -4.849133,-5.106879 -4.849133,-5.582911 0,-0.476031 7.262537,-0.733228 16.13897,-0.572553 l 16.13897,0.291444 0.28524,23.017877 0.28525,23.017877 h 12.1497 12.1497 v -23.28245 -23.28245 h 14.85332 14.8533 l -0.30177,-10.847506 -0.30178,-10.847505 z m 126.99518,1.482025 4.29105,0.05374 c 12.77497,0.188585 25.55336,0.240282 38.32592,0.562218 3.03428,0.145765 6.32795,0.160119 9.37375,0.915671 2.59464,0.820854 5.01831,2.168055 7.19515,3.792907 4.06079,3.039076 6.75314,7.805833 7.21583,12.860742 0.39598,3.910787 0.23706,8.137026 -1.95329,11.544078 -2.42773,4.069889 -6.81592,6.453509 -9.34275,10.438243 -0.63397,0.983283 -0.57423,2.313359 0.23977,3.17488 1.31309,0.943912 3.0331,0.717502 4.55769,0.892935 10.71508,0.496704 21.44568,0.261336 32.16839,0.318314 V 79.679758 H 315.9005 c -6.5059,-0.01323 -13.11703,0.02624 -19.54536,-0.231502 -0.51979,-0.01955 -1.33897,-0.07433 -1.821,-0.09301 -2.5288,-0.229293 -5.19995,-0.259345 -7.51553,-1.41588 -3.26444,-1.997926 -6.12375,-4.582748 -8.94796,-7.147614 -4.66143,-4.467738 -9.18431,-9.078222 -13.78882,-13.604854 v 22.49286 H 240.99938 V 47.335672 Z m -63.94613,0.105415 h 34.78106 c 6.64063,21.265587 13.17964,42.563972 19.83473,63.824175 0.43757,0.66363 -0.4243,0.481238 -0.86813,0.549816 -6.55109,0.318485 -13.11307,0.129392 -19.66938,0.181894 -0.88952,-3.174676 -1.77913,-6.349331 -2.6664,-9.524639 h -27.29032 c -0.80004,3.174849 -1.59796,6.350231 -2.39977,9.524639 -6.96247,-0.06364 -13.93933,0.195192 -20.88888,-0.336917 0.2358,-0.837228 0.48203,-1.671007 0.72137,-2.507246 5.39423,-18.563885 11.09529,-37.02496 16.61438,-55.552125 0.61045,-2.053199 1.2209,-4.106398 1.83134,-6.159597 z m -14.83883,0.529147 c 0.16131,5.820629 0.32321,11.641242 0.48573,17.461837 h -29.64667 v 46.564901 h -20.09311 c -0.18862,-15.33286 -0.37973,-30.665689 -0.56842,-45.998549 -1.19716,-0.02168 -2.39524,-0.04249 -3.59241,-0.06408 -8.91148,-0.100131 -17.825598,-0.503803 -26.736366,-0.186028 -1.683999,0.144468 -3.49249,-0.0093 -5.05583,0.711041 -0.634268,0.258669 -0.859907,0.86753 -1.116169,1.451019 -0.152727,0.820351 0.299694,1.702929 0.783385,2.379093 3.133804,4.13936 7.49923,7.229911 10.225345,11.6991 2.415554,3.677057 3.195489,8.184788 2.928909,12.519691 -0.318812,5.8868 -3.3557,11.723155 -8.458078,14.828507 -1.750459,1.282591 -3.939868,1.610985 -6.04798,1.7652 -3.364987,0.281724 -6.598888,0.335707 -9.95457,0.413396 -19.416195,0.293595 -38.834194,0.373617 -58.2516,0.564285 V 59.586656 c 19.541203,-0.197896 39.082416,-0.394916 58.623655,-0.589089 -2.334137,-2.674614 -4.66964,-5.34839 -7.00499,-8.021945 -3.186085,-3.700383 -6.568969,-7.544107 -7.924798,-12.343998 -0.882804,-3.604991 -0.844453,-7.488393 0.30178,-11.031467 1.435556,-4.416835 5.172811,-7.594274 9.117443,-9.778877 2.326307,-1.540058 5.204365,-1.542521 7.883458,-1.750731 10.063484,-0.462235 20.141857,-0.337647 30.213036,-0.409262 21.29607,-0.01471 42.59216,-0.0059 63.88825,-0.0083 z m 33.08819,12.358466 c -0.71462,2.04315 -1.42887,4.085432 -2.14346,6.128593 -2.53343,6.972357 -4.65235,14.083307 -6.74041,21.198935 4.35313,-0.05948 8.71558,0.14502 13.06124,-0.167425 1.1017,-0.132287 2.55512,-0.187833 3.1046,-1.308397 0.46687,-0.512278 0.46143,-1.100565 0.23564,-1.723861 -1.6918,-6.07737 -3.72275,-12.054609 -5.59738,-18.077798 z m 79.87427,2.056645 c -3.41327,0.04488 -6.81857,0.346061 -10.22741,0.51261 -0.31228,4.372635 -0.63032,8.744857 -0.94874,13.117048 3.73916,-0.0034 7.47834,0.0079 11.21748,-0.0041 2.99608,-0.08311 6.10909,0.04875 8.96036,-1.016955 2.13583,-0.786007 3.06794,-3.146834 3.22449,-5.256327 0.25371,-2.070608 -0.73667,-4.198932 -2.52172,-5.2956 -2.87267,-1.8081 -6.40184,-1.995982 -9.70446,-2.056643 z m -2.77802,2.201332 c 7.80332,-0.452047 12.43828,0.943446 12.86487,3.875585 0.1902,1.307272 -0.22386,3.065536 -0.92187,3.906591 -0.91149,1.098289 -3.63595,1.529564 -9.66726,1.529564 h -8.39813 l 0.32658,-4.497746 0.32452,-4.497746 z m -77.19339,2.432834 2.78835,8.78466 c 1.53419,4.832053 2.79042,8.999082 2.79042,9.260066 0,0.260983 -2.59276,0.475405 -5.76273,0.475405 h -5.76481 l 1.49442,-5.026893 c 0.82143,-2.764791 2.16005,-6.93182 2.97439,-9.260065 z m -9.23733,52.255293 v 33.75376 c 0,18.56472 0.3168,34.07264 0.70484,34.46067 0.38803,0.38805 6.57905,0.70485 13.75781,0.70485 h 13.05297 v -9.67139 -9.66933 l 8.78466,8.43327 c 6.97432,6.69563 9.79736,8.68923 13.69787,9.67139 6.06325,1.52675 57.94357,1.69642 63.13794,0.2067 8.27815,-2.37414 14.12984,-9.01725 15.50233,-17.60033 1.09544,-6.85048 -1.10507,-12.43786 -8.09221,-20.55609 l -6.34976,-7.37912 h 17.51144 17.51145 V 98.199889 87.08781 l -23.01788,0.0062 c -12.79529,0.0033 -24.79325,0.499069 -27.01541,1.116169 -4.60411,1.278568 -10.76009,6.31423 -12.9889,10.624271 -1.96542,3.80027 -1.97099,12.67633 -0.0103,17.36883 0.83824,2.0062 3.69564,5.96785 6.34976,8.80532 2.65413,2.83748 4.8264,5.46718 4.8264,5.84336 0,1.21849 -36.85419,0.78101 -37.61282,-0.44647 -0.3841,-0.62149 1.19201,-2.74861 3.50353,-4.72719 5.24809,-4.49217 7.65196,-9.4453 7.65196,-15.7669 0,-8.86726 -4.15681,-15.703971 -12.17037,-20.016633 -3.96644,-2.134624 -5.95023,-2.297618 -31.48422,-2.606461 z m -26.59996,0.08268 -19.11542,0.289377 -19.11749,0.28731 -9.91115,32.807093 c -5.45118,18.04389 -9.91318,33.41697 -9.9153,34.16302 -0.004,1.04295 2.85886,1.28754 12.38119,1.0583 l 12.38328,-0.29765 1.56884,-5.05996 1.5709,-5.05997 11.65776,0.29765 11.65983,0.29764 1.5585,5.0269 1.56057,5.02689 h 11.80865 c 6.49451,0 12.05,-0.24135 12.34606,-0.53741 0.29607,-0.29607 -2.97246,-11.8447 -7.26336,-25.66361 -4.29091,-13.81892 -9.01094,-29.06487 -10.48785,-33.879857 z M 5.10955,87.08781 6.068628,89.998116 c 2.029064,6.160007 20.097236,64.965544 20.097236,65.409544 0,0.25761 5.201071,0.46921 11.558546,0.46921 h 11.558546 l 3.296831,-10.84751 c 5.124025,-16.86769 4.559647,-16.73669 9.105042,-2.11658 l 4.030609,12.96409 h 11.407657 11.409723 l 3.675092,-11.9058 c 2.02206,-6.54819 6.34698,-20.71609 9.60939,-31.48422 3.2624,-10.76814 6.36127,-20.888065 6.88717,-22.488734 l 0.957,-2.910306 H 96.61884 83.57827 l -2.445237,8.466346 c -1.345514,4.656494 -2.774209,8.466344 -3.174879,8.466344 -0.40067,0 -1.829366,-3.80985 -3.17488,-8.466344 L 72.335971,87.08781 H 57.951865 43.567759 l -1.951228,7.672626 C 38.70094,106.23243 38.389334,106.30845 35.601623,96.205254 L 33.086109,87.08781 H 19.098863 Z m 182.97517,2.013238 c 6.2175,0.07524 12.43493,0.150055 18.65242,0.2253 8.84082,0.128551 17.76952,0.154646 26.54,0.473338 0.49585,0.0273 1.46802,0.07781 1.9223,0.09715 2.04832,0.148079 4.12398,0.259866 6.10793,0.828858 2.80263,0.966893 5.31948,2.675367 7.49899,4.665171 3.69188,3.387841 5.75558,8.325955 5.91776,13.303085 0.26129,4.08384 -0.74514,8.31913 -3.28236,11.58541 -1.66235,2.38258 -4.12052,4.00803 -6.01284,6.1782 -1.03332,1.24311 -2.30477,2.85068 -1.74247,4.55976 0.37548,1.41209 2.01128,1.72968 3.27203,1.86648 5.84539,0.61569 11.73452,0.65669 17.60653,0.77511 5.86042,0.0235 11.73595,0.13684 17.58172,-0.34312 1.1866,-0.11853 2.73601,-0.36367 3.15007,-1.66805 0.48276,-0.60986 0.0881,-1.38427 -0.18188,-2.00497 -2.04143,-3.14159 -4.88717,-5.6481 -7.20756,-8.57176 -1.54358,-2.03164 -3.23704,-4.05456 -4.09675,-6.49031 -1.14575,-3.90213 -1.27811,-8.08947 -0.59323,-12.0877 0.30554,-2.37565 1.73433,-4.392867 3.34438,-6.087247 2.52615,-2.624105 5.52715,-4.949542 9.01616,-6.112057 2.8247,-0.544294 5.72328,-0.552192 8.58829,-0.727577 1.3902,-0.06829 3.05734,-0.112462 4.47088,-0.163291 11.47516,-0.316736 22.95592,-0.15195 34.4338,-0.19843 v 17.990982 h -37.5198 c 1.71078,1.98808 3.42166,3.9771 5.1323,5.9653 3.87289,4.64169 8.32194,9.00943 10.76483,14.63628 1.6544,3.69092 1.62975,7.93868 0.46715,11.76524 -1.60484,5.68272 -5.96521,10.48778 -11.48415,12.6003 -2.10866,0.96081 -4.4537,0.97609 -6.72181,1.13478 -11.14499,0.53699 -22.3097,0.5075 -33.46438,0.39479 -6.61751,-0.0983 -13.33572,-0.21959 -19.86781,-0.65523 -0.98122,-0.0788 -1.66825,-0.1269 -2.63747,-0.24804 -4.02035,-0.416 -7.21992,-3.16174 -10.12613,-5.7338 -5.50915,-5.06222 -10.82461,-10.33046 -16.24645,-15.4858 v 22.19108 c -7.38431,-0.0526 -14.78073,0.17078 -22.15387,-0.33072 -0.91438,0.22148 -0.60943,-0.73164 -0.69865,-1.30633 -0.38601,-10.3351 -0.40231,-20.9649 -0.42993,-31.41601 z m -30.27297,0.08061 c 2.73267,8.926664 5.4923,17.845632 8.25551,26.763242 3.83101,12.50227 7.89706,24.93923 11.2423,37.58388 -1.13304,0.0632 -2.08928,0.10192 -3.24516,0.14055 -5.51784,0.15039 -11.25436,0.0708 -16.85621,0.0909 -1.03541,-3.33802 -2.07175,-6.67562 -3.10461,-10.01451 -8.8122,-0.22507 -17.62436,-0.45214 -26.43665,-0.67384 -1.05779,3.39799 -2.11079,6.79724 -3.16455,10.19641 -2.13671,0.0513 -4.27297,0.10163 -6.4097,0.15296 -4.77715,0.0639 -9.56744,0.37546 -14.33863,0.0248 0.3284,-1.24957 0.68197,-2.49124 1.03142,-3.73503 5.74949,-20.07204 11.92421,-40.00242 17.92692,-60.000265 5.85712,-0.08819 11.71425,-0.176386 17.57138,-0.264574 5.84265,-0.08819 11.68532,-0.176385 17.52798,-0.264573 z M 8.036392,89.204398 h 23.437474 l 0.876399,3.176946 c 1.074474,3.65219 1.871176,7.400356 3.274094,10.946716 0.496243,1.3101 1.683302,2.59343 3.201751,2.35843 1.580462,-0.22726 2.374961,-1.8546 2.827627,-3.22656 1.438653,-4.34559 2.377118,-8.836712 3.559337,-13.255532 h 25.531324 c 1.385603,4.628679 2.543536,9.336852 4.301383,13.844622 0.514216,1.28107 1.139771,2.93908 2.722211,3.1046 1.177181,0.1261 2.145192,-0.84645 2.571322,-1.87888 2.115544,-4.845833 3.29978,-10.024885 4.830529,-15.070342 H 106.7367 c -0.18431,0.573216 -0.35998,1.14975 -0.54155,1.72386 C 99.74977,111.86062 93.4684,132.84328 86.972249,153.76028 H 67.27394 c -1.297825,-4.17712 -2.598968,-8.35431 -3.894189,-12.53209 -1.022882,-3.08435 -1.767366,-6.28609 -3.183147,-9.22286 -0.60773,-1.3443 -2.176375,-2.41928 -3.654418,-1.80241 -1.731109,0.71602 -2.281945,2.71625 -2.902038,4.31379 -1.944215,5.83176 -3.607111,11.75387 -5.434088,17.62306 -0.291446,0.47758 -0.160718,1.52569 -0.735845,1.62051 -6.56097,-0.0421 -13.15519,0.13 -19.640433,-0.23564 -0.808137,-2.72636 -1.642011,-5.44546 -2.461772,-8.1687 C 19.644604,126.67107 13.953385,107.97485 8.079798,89.336683 l -0.01033,-0.031 z M 220.37713,104.01017 c -2.29782,-0.004 -4.59907,0.0487 -6.89337,0.0103 h -2.11659 c 0.0713,3.20266 -0.18739,6.42631 0.23771,9.61145 0.18138,1.39186 0.66225,3.03764 2.16618,3.49733 2.57485,0.75234 5.30628,0.61682 7.96201,0.62423 3.04967,-0.11998 6.16573,-0.16706 9.11125,-1.04383 3.36192,-1.26446 4.77021,-5.73682 3.1108,-8.83634 -1.29992,-2.41169 -4.17209,-3.20947 -6.70115,-3.52419 -2.28403,-0.27274 -4.57902,-0.33454 -6.87684,-0.33898 z m -6.89337,2.12692 h 7.47833 c 8.71335,0 11.57095,1.17633 11.57095,4.76232 0,1.45901 -0.88477,3.04517 -2.04631,3.66681 -2.25285,1.2057 -15.17327,1.51552 -16.29813,0.39066 -0.38804,-0.38803 -0.70484,-2.53108 -0.70484,-4.76232 z m -72.73493,0.74824 c -0.1345,0.043 -0.26854,0.13932 -0.40306,0.31211 -0.92053,0.43328 -1.47869,1.28821 -1.80654,2.22408 -1.91536,4.89786 -3.24049,9.99945 -4.84085,15.0042 -0.5284,1.29542 -0.52949,2.95433 0.61596,3.92519 1.62668,1.22138 3.78849,0.97073 5.70485,1.06036 2.20588,-0.0552 4.49101,0.18682 6.62468,-0.48161 1.49935,-0.46845 2.32473,-2.17331 1.88508,-3.65855 -1.47173,-4.76457 -2.82977,-9.56793 -4.48121,-14.27455 -0.51891,-1.18315 -0.76694,-2.66923 -1.88302,-3.44566 -0.0686,-0.0457 -0.13812,-0.0907 -0.2067,-0.13642 -0.40355,-0.29566 -0.80563,-0.65822 -1.20919,-0.52915 z m 0.24185,2.42664 c 0.24425,0 1.4293,3.21456 2.63333,7.14348 1.20402,3.92891 2.44566,7.97688 2.75941,8.99549 0.49658,1.61219 -0.20168,1.85201 -5.39274,1.85201 -5.19107,0 -5.88933,-0.23982 -5.39275,-1.85201 0.31375,-1.01861 1.5554,-5.06658 2.75942,-8.99549 1.20402,-3.92892 2.38907,-7.14348 2.63333,-7.14348 z" />
  </g>
</svg>
