<?xml version="1.0" encoding="UTF-8" standalone="no"?>
<!-- Created with Inkscape (http://www.inkscape.org/) -->

<svg
   version="1.1"
   id="svg1821"
   width="338"
   height="161"
   viewBox="0 0 338 161"
   sodipodi:docname="338px-Star_wars2.svg.png"
   inkscape:version="1.1.1 (3bf5ae0d25, 2021-09-20)"
   xmlns:inkscape="http://www.inkscape.org/namespaces/inkscape"
   xmlns:sodipodi="http://sodipodi.sourceforge.net/DTD/sodipodi-0.dtd"
   xmlns="http://www.w3.org/2000/svg"
   xmlns:svg="http://www.w3.org/2000/svg">
  <defs
     id="defs1825" />
  <sodipodi:namedview
     id="namedview1823"
     pagecolor="#ffffff"
     bordercolor="#666666"
     borderopacity="1.0"
     inkscape:pageshadow="2"
     inkscape:pageopacity="0.0"
     inkscape:pagecheckerboard="0"
     showgrid="false"
     inkscape:zoom="3.0325444"
     inkscape:cx="169"
     inkscape:cy="80.625366"
     inkscape:window-width="1920"
     inkscape:window-height="991"
     inkscape:window-x="-9"
     inkscape:window-y="-9"
     inkscape:window-maximized="1"
     inkscape:current-layer="g1827" />
  <g
     inkscape:groupmode="layer"
     inkscape:label="Image"
     id="g1827">
    <path
       style="fill:#000000"
       d="M 33,147.55743 C 33,147.13788 15.927168,91.570699 14.00987,85.75 L 13.104039,83 h 13.217307 13.217307 l 2.376913,8.614377 c 2.634158,9.546683 2.929842,9.475713 5.684835,-1.364377 L 49.442977,83 h 13.592004 13.592003 l 2.311637,8 c 1.2714,4.4 2.6214,8 3,8 0.3786,0 1.7286,-3.6 3,-8 l 2.311637,-8 h 12.322851 12.322851 l -0.9035,2.75 c -0.49693,1.5125 -3.42572,11.075 -6.50842,21.25 -3.0827,10.175 -7.1682,23.5625 -9.078883,29.75 L 91.931188,148 H 81.151206 70.371225 l -3.808527,-12.25 c -4.295024,-13.8148 -3.762502,-13.93858 -8.604284,2 L 54.844695,148 H 43.922347 C 37.915056,148 33,147.80085 33,147.55743 Z m 71.0043,-0.77569 c 0.002,-0.70496 4.21869,-15.23174 9.3696,-32.28174 l 9.36529,-31 18.06309,-0.272298 18.06309,-0.272299 2.53738,8.272299 c 1.39556,4.549764 5.85475,18.955898 9.90931,32.013638 4.05455,13.05774 7.14302,23.97024 6.86326,24.25 C 177.89556,147.7711 172.64567,148 166.5089,148 h -11.15776 l -1.4733,-4.75 -1.4733,-4.75 -11.01707,-0.28102 -11.01707,-0.28102 -1.48304,4.78102 -1.48304,4.78102 -11.70216,0.28174 c -8.99783,0.21662 -11.70117,-0.0145 -11.69786,-1 z M 146.59575,119.25 c -0.29647,-0.9625 -1.46987,-4.7875 -2.60757,-8.5 -1.1377,-3.7125 -2.25738,-6.75 -2.48818,-6.75 -0.2308,0 -1.35048,3.0375 -2.48818,6.75 -1.1377,3.7125 -2.3111,7.5375 -2.60757,8.5 -0.46923,1.52339 0.19062,1.75 5.09575,1.75 4.90513,0 5.56498,-0.22661 5.09575,-1.75 z m 38.07092,28.08333 C 184.3,146.96667 184,132.31401 184,114.77188 V 82.877087 l 25.75,0.311457 c 24.12752,0.291831 26.00204,0.447094 29.75,2.464138 7.57216,4.075111 11.5,10.535243 11.5,18.914068 0,5.9734 -2.27147,10.65381 -7.23048,14.89854 -2.1842,1.86959 -3.67432,3.87973 -3.31138,4.46698 0.71684,1.15987 35.54186,1.5728 35.54186,0.42143 0,-0.35546 -2.05194,-2.83998 -4.55987,-5.52116 -2.50793,-2.68118 -5.20793,-6.42589 -6,-8.32159 -1.85265,-4.43402 -1.84816,-12.821225 0.009,-16.412166 2.10604,-4.072634 7.92325,-8.830514 12.27375,-10.038656 2.09976,-0.583109 13.43683,-1.051451 25.52733,-1.054551 L 325,83 V 93.5 104 h -16.54681 -16.54682 l 6.00078,6.97219 c 6.60228,7.67106 8.68054,12.95116 7.64544,19.4243 -1.29689,8.1103 -6.82549,14.38741 -14.64766,16.63078 -4.90825,1.40766 -53.93226,1.24645 -59.66153,-0.1962 -3.68566,-0.92806 -6.35266,-2.811 -12.94282,-9.13782 L 210,129.72436 V 138.86218 148 h -12.33333 c -6.78334,0 -12.63334,-0.3 -13,-0.66667 z m 41.39907,-38.36851 C 227.1633,108.37742 228,106.87865 228,105.5 228,102.11154 225.29914,101 217.06574,101 H 210 v 3.83333 c 0,2.10834 0.3,4.13334 0.66667,4.5 1.0629,1.0629 13.27031,0.77077 15.39907,-0.36851 z M 13,66.56457 V 55.032667 L 39.515745,54.766333 66.031489,54.5 61.664932,49.5 C 55.657289,42.620848 53.714286,38.466336 53.714286,32.5 53.714286,24.753962 57.133569,19.563092 65,15.366973 68.275659,13.619668 71.544628,13.5 116,13.5 h 47.5 l 0.28498,10.25 0.28499,10.25 H 150.03498 136 V 56 78 H 124.5195 113.039 L 112.7695,56.25 112.5,34.5 97.25,34.223954 C 88.8625,34.072129 82,34.315935 82,34.765746 c 0,0.449811 2.062135,2.824032 4.582522,5.276046 C 92.920142,46.207487 95.2,50.997619 95.2,58.147683 95.2,65.315727 91.853242,71.684711 86.258848,75.162972 82.534379,77.478625 82.182175,77.502728 47.75,77.798237 L 13,78.096474 Z m 142,10.654035 c 0,-0.429767 3.32364,-11.792267 7.38587,-25.25 C 166.4481,38.510872 170.74215,24.2375 171.92822,20.25 L 174.08469,13 h 17.91465 17.91466 l 3.97157,12.75 c 2.18436,7.0125 6.54396,21.075 9.68799,31.25 3.14404,10.175 5.92432,19.0625 6.17842,19.75 0.35339,0.956138 -2.35368,1.25 -11.51503,1.25 H 206.25992 L 205,73.5 203.74008,69 H 192.38444 181.0288 l -1.13312,4.5 -1.13311,4.5 H 166.88129 C 160.34658,78 155,77.648372 155,77.218605 Z m 43,-26.666983 c 0,-0.246608 -1.18611,-4.184108 -2.6358,-8.75 L 192.72839,33.5 l -1.39906,4 c -0.76948,2.2 -2.03411,6.1375 -2.81029,8.75 L 187.1078,51 h 5.4461 C 195.54926,51 198,50.79823 198,50.551622 Z m 36,-5.114025 V 12.875194 l 25.28101,0.312403 c 24.85572,0.307147 25.36446,0.35538 30.24085,2.867046 6.69972,3.450798 10.66859,9.196799 11.2575,16.298238 0.62809,7.573976 -1.0792,11.832275 -6.80959,16.984387 -2.69316,2.421383 -4.6131,4.686064 -4.26655,5.032624 C 290.04978,54.716451 298.13333,55 307.66667,55 H 325 V 66.5 78 h -21.03212 c -16.67407,0 -21.8025,-0.319466 -24.75,-1.541756 -2.04483,-0.847966 -7.20538,-4.999908 -11.46788,-9.22654 L 260,59.54692 V 68.77346 78 h -13 -13 z m 42.95432,-6.882555 c 0.65956,-0.794727 1.05216,-2.455629 0.87244,-3.690893 -0.4031,-2.77063 -4.78382,-4.090762 -12.15732,-3.663615 L 260.5,31.5 260.1925,35.75 259.885,40 h 7.93506 c 5.69909,0 8.27297,-0.407165 9.13426,-1.444958 z"
       id="path1911" />
  </g>
</svg>
